<!DOCTYPE svg PUBLIC "-//W3C//DTD SVG 20010904//EN" "http://www.w3.org/TR/2001/REC-SVG-20010904/DTD/svg10.dtd">
<svg version="1.0" xmlns="http://www.w3.org/2000/svg" width="1000px" height="881px" viewBox="0 0 10000 8810" preserveAspectRatio="xMidYMid meet">
<g id="layer101" fill="#ffffff" stroke="none">
 <path d="M0 8770 l0 -40 95 0 c104 0 113 5 101 55 -6 24 -8 25 -101 25 l-95 0 0 -40z"/>
 <path d="M3995 8550 c-4 -6 -83 -10 -203 -10 -145 -1 -207 -5 -237 -15 -22 -8 -76 -15 -122 -15 -45 0 -84 -4 -87 -9 -3 -4 -40 -11 -83 -15 -42 -3 -82 -11 -87 -16 -6 -6 -30 -10 -56 -10 -25 0 -54 -7 -64 -15 -11 -8 -39 -15 -62 -15 -24 0 -46 -4 -49 -10 -3 -5 -21 -10 -39 -10 -18 0 -41 -7 -52 -15 -10 -8 -32 -15 -49 -15 -16 0 -39 -7 -49 -15 -11 -8 -30 -15 -42 -15 -13 0 -26 -4 -29 -10 -3 -5 -17 -10 -30 -10 -13 0 -36 -6 -52 -14 -15 -8 -46 -22 -68 -31 -22 -9 -48 -20 -57 -25 -10 -6 -26 -10 -37 -10 -10 0 -24 -7 -31 -15 -7 -8 -20 -15 -29 -15 -9 0 -46 -15 -81 -34 -36 -19 -96 -51 -135 -70 -78 -41 -96 -51 -142 -83 -17 -13 -36 -23 -41 -23 -5 0 -15 -6 -21 -14 -7 -8 -27 -22 -46 -31 -19 -9 -35 -20 -35 -25 0 -6 -6 -10 -13 -10 -7 0 -24 -11 -39 -25 -15 -14 -31 -25 -36 -25 -4 0 -34 -25 -66 -55 -31 -30 -60 -55 -64 -55 -4 0 -23 -19 -42 -42 -83 -98 -44 -88 -334 -88 -206 0 -264 -3 -293 -15 -19 -8 -53 -15 -74 -15 -21 0 -41 -4 -44 -10 -3 -5 -21 -10 -39 -10 -18 0 -41 -7 -52 -15 -10 -8 -31 -15 -45 -15 -15 0 -32 -7 -39 -15 -7 -8 -19 -15 -26 -15 -8 0 -22 -4 -32 -9 -9 -5 -24 -12 -32 -15 -8 -4 -31 -16 -50 -27 -19 -12 -50 -29 -68 -39 -46 -25 -105 -74 -177 -146 -79 -80 -115 -120 -115 -131 0 -4 -10 -19 -23 -33 -13 -14 -30 -38 -39 -55 -8 -16 -23 -46 -33 -65 -28 -54 -32 -63 -39 -98 -4 -17 -12 -34 -17 -37 -5 -4 -9 -20 -9 -36 0 -17 -7 -44 -16 -61 -23 -45 -23 -435 0 -490 9 -21 16 -53 16 -72 0 -19 4 -36 9 -38 5 -1 12 -18 14 -37 3 -18 10 -38 16 -44 6 -6 11 -23 11 -38 0 -15 7 -32 15 -39 8 -7 15 -21 15 -31 0 -11 5 -19 10 -19 6 0 10 -9 10 -19 0 -11 7 -26 15 -35 8 -8 15 -21 15 -29 0 -8 7 -20 15 -27 8 -7 15 -21 15 -31 0 -11 4 -19 9 -19 5 0 13 -10 17 -22 3 -12 17 -33 30 -47 13 -14 24 -31 24 -38 0 -6 16 -28 35 -49 37 -39 41 -49 25 -59 -6 -3 -10 -16 -10 -28 0 -13 -6 -31 -14 -42 -14 -21 -22 -63 -37 -180 -4 -38 -13 -110 -19 -160 -14 -110 -7 -478 9 -483 7 -2 11 -42 11 -108 0 -63 4 -104 10 -104 6 0 10 -28 10 -62 0 -36 6 -75 15 -92 8 -15 15 -47 15 -70 0 -23 7 -51 15 -62 8 -10 15 -40 15 -66 0 -27 5 -48 10 -48 6 0 10 -17 10 -38 0 -21 7 -47 15 -58 8 -10 15 -31 15 -45 0 -15 7 -40 15 -55 8 -16 15 -39 15 -51 0 -13 5 -23 10 -23 6 0 10 -16 10 -35 0 -22 6 -38 15 -41 8 -4 15 -18 15 -33 0 -15 11 -51 25 -79 14 -29 25 -60 25 -71 0 -10 7 -24 15 -31 8 -7 15 -21 15 -31 0 -11 4 -19 9 -19 5 0 11 -10 14 -22 11 -47 35 -102 46 -106 6 -2 11 -11 11 -19 0 -22 32 -93 42 -93 4 0 8 -11 8 -24 0 -13 7 -26 15 -30 8 -3 15 -14 15 -25 0 -10 7 -22 16 -25 9 -3 14 -12 11 -20 -3 -7 -1 -18 5 -24 12 -12 29 -41 58 -99 11 -24 25 -43 30 -43 6 0 10 -8 10 -19 0 -10 7 -24 15 -31 8 -7 15 -17 15 -23 0 -5 11 -25 25 -43 14 -18 25 -37 25 -42 0 -5 6 -15 14 -21 8 -7 22 -27 31 -46 9 -19 20 -35 25 -35 6 0 10 -7 10 -15 0 -8 5 -15 10 -15 6 0 10 -6 10 -13 0 -8 11 -27 25 -43 14 -16 35 -45 47 -64 12 -19 25 -37 28 -40 3 -3 19 -23 36 -45 16 -22 48 -65 72 -95 23 -30 46 -59 50 -65 150 -195 547 -605 762 -785 14 -11 43 -36 65 -55 79 -68 91 -78 148 -117 31 -23 57 -45 57 -49 0 -5 7 -9 15 -9 8 0 15 -4 15 -10 0 -5 6 -10 13 -10 6 0 25 -14 41 -30 16 -17 35 -30 42 -30 7 0 14 -3 16 -8 5 -12 85 -72 95 -72 6 0 22 -11 37 -25 15 -14 29 -25 32 -25 3 0 20 -11 38 -25 18 -14 35 -25 39 -25 3 0 42 -25 87 -55 45 -30 83 -55 86 -55 2 0 32 -17 66 -38 35 -21 82 -47 106 -57 23 -10 42 -22 42 -27 0 -4 6 -8 14 -8 7 0 19 -7 26 -15 7 -8 19 -15 26 -15 8 0 32 -11 54 -25 22 -14 47 -25 55 -25 9 0 18 -7 21 -15 4 -8 15 -15 25 -15 10 0 19 -4 19 -10 0 -5 8 -10 19 -10 10 0 24 -7 31 -15 7 -8 18 -15 25 -15 6 0 32 -11 56 -23 24 -13 56 -27 72 -31 15 -3 27 -11 27 -16 0 -6 11 -10 24 -10 13 0 29 -7 36 -15 7 -8 21 -15 31 -15 11 0 19 -4 19 -10 0 -5 8 -10 18 -10 10 0 27 -7 38 -15 10 -8 27 -15 36 -15 9 0 31 -8 50 -17 61 -31 68 -33 87 -33 10 0 24 -7 31 -15 7 -8 20 -15 29 -15 24 0 90 -25 103 -38 7 -7 23 -12 38 -12 14 0 34 -7 44 -15 11 -8 32 -15 47 -15 15 0 31 -5 34 -10 3 -6 19 -10 34 -10 15 0 36 -7 47 -15 10 -8 33 -15 49 -15 17 0 39 -7 49 -15 11 -8 32 -15 47 -15 15 0 31 -4 34 -10 3 -5 21 -10 38 -10 18 -1 43 -7 57 -15 14 -8 43 -15 65 -15 22 0 49 -7 59 -15 11 -8 37 -15 57 -15 21 0 41 -4 44 -10 3 -5 27 -10 53 -10 26 -1 58 -7 72 -15 14 -8 50 -14 80 -15 31 0 60 -4 66 -10 13 -13 143 -32 264 -36 96 -4 121 -9 172 -35 21 -11 888 -12 888 -1 0 15 82 32 159 32 44 0 82 4 85 9 3 4 40 11 83 15 42 3 82 11 87 16 6 6 30 10 56 10 25 0 54 7 64 15 11 8 39 15 62 15 24 0 46 4 49 10 3 5 21 10 39 10 18 0 41 7 52 15 10 8 33 15 49 15 17 0 39 7 49 15 11 8 30 15 42 15 13 0 26 5 29 10 3 6 18 10 33 10 15 0 36 7 46 15 11 8 28 15 39 15 10 0 25 7 33 15 9 8 24 15 34 15 10 0 22 5 25 10 3 5 17 10 29 10 13 0 29 7 36 15 7 8 21 15 30 15 20 0 83 30 88 43 2 4 12 7 22 7 9 0 23 7 30 15 7 8 21 15 31 15 11 0 19 4 19 8 0 7 28 21 80 41 15 6 100 61 110 71 10 10 45 31 63 36 9 4 17 10 17 14 0 4 8 11 18 14 35 13 78 43 175 126 43 37 133 127 159 161 22 28 26 29 105 29 45 0 85 -4 88 -10 8 -13 172 -13 180 0 3 6 49 10 103 10 67 0 106 5 126 15 15 8 48 15 72 15 24 0 44 5 44 10 0 6 15 10 33 10 18 0 42 7 53 15 10 8 29 15 40 15 12 0 27 7 34 15 7 8 19 15 26 15 8 0 22 4 32 9 9 5 24 12 32 15 8 4 29 15 45 26 17 11 38 23 48 26 9 4 17 10 17 15 0 5 6 9 13 9 16 1 159 116 171 138 5 9 18 23 27 30 23 16 109 127 109 140 0 6 4 12 9 14 11 4 71 114 71 131 0 8 7 20 15 27 9 7 13 21 10 30 -3 9 1 23 10 30 8 7 15 29 15 49 0 23 7 45 20 59 19 20 20 35 20 236 0 198 -2 218 -20 248 -12 19 -20 51 -20 76 0 23 -4 42 -9 42 -5 0 -12 18 -16 40 -4 22 -11 42 -16 46 -5 3 -9 19 -9 35 0 17 -6 32 -15 35 -8 4 -15 17 -15 30 0 13 -4 24 -10 24 -5 0 -10 9 -10 19 0 11 -7 26 -15 35 -8 8 -15 21 -15 29 0 8 -7 20 -15 27 -8 7 -15 21 -15 31 0 11 -4 19 -10 19 -5 0 -16 16 -25 35 -9 19 -23 39 -31 46 -8 6 -14 17 -14 23 0 6 -10 22 -22 36 -46 50 -49 58 -40 77 24 47 48 134 58 208 2 22 12 72 20 111 20 92 17 765 -4 786 -7 7 -12 39 -12 79 0 37 -4 71 -10 74 -5 3 -10 28 -10 54 0 27 -7 65 -15 84 -8 20 -15 51 -15 70 0 18 -7 42 -15 53 -8 10 -15 36 -15 56 0 20 -4 40 -10 43 -5 3 -10 19 -10 34 0 15 -7 36 -15 47 -8 10 -15 33 -15 50 0 16 -6 36 -12 42 -7 7 -13 27 -14 44 -1 18 -7 34 -13 36 -6 2 -11 14 -11 27 0 12 -7 28 -15 35 -8 7 -15 25 -15 41 0 16 -4 29 -10 29 -5 0 -10 8 -10 18 0 10 -7 27 -15 38 -8 10 -15 32 -15 47 0 15 -7 30 -15 33 -8 4 -15 17 -15 30 0 13 -4 24 -10 24 -5 0 -10 8 -10 19 0 10 -7 24 -15 31 -8 7 -15 20 -15 30 0 10 -7 23 -15 30 -8 7 -15 21 -15 31 0 11 -4 19 -10 19 -5 0 -10 8 -10 19 0 10 -7 24 -15 31 -8 7 -15 19 -15 27 0 8 -7 21 -15 29 -8 9 -15 24 -15 35 0 10 -4 19 -10 19 -5 0 -10 9 -10 20 0 11 -7 23 -15 26 -8 4 -15 14 -15 25 0 10 -6 22 -13 26 -7 4 -21 24 -31 43 -24 48 -37 70 -63 107 -13 17 -23 34 -23 37 0 8 -61 96 -87 126 -13 13 -23 29 -23 35 0 6 -11 22 -25 37 -14 15 -25 30 -25 34 0 8 -62 88 -72 92 -5 2 -8 9 -8 16 0 6 -14 27 -31 45 -17 19 -48 58 -70 87 -21 29 -54 68 -72 86 -18 18 -42 45 -54 60 -52 69 -416 448 -429 448 -3 0 -21 17 -42 38 -20 20 -66 62 -102 92 -65 55 -88 75 -145 125 -16 15 -66 54 -110 88 -44 33 -81 65 -83 69 -2 4 -10 8 -17 8 -7 0 -15 4 -17 9 -4 12 -195 151 -207 151 -5 0 -11 7 -15 15 -3 8 -12 15 -19 15 -8 0 -25 10 -39 23 -33 29 -59 46 -80 53 -10 4 -18 10 -18 14 0 4 -8 11 -17 14 -19 7 -27 12 -115 69 -31 20 -61 37 -67 37 -5 0 -11 4 -13 9 -4 9 -73 51 -138 82 -25 12 -47 24 -50 28 -7 9 -41 28 -80 47 -19 8 -42 20 -50 25 -8 5 -22 12 -30 15 -8 3 -22 10 -30 15 -8 5 -23 12 -32 15 -10 4 -18 10 -18 15 0 5 -8 9 -19 9 -10 0 -24 7 -31 15 -7 8 -23 15 -36 15 -12 0 -25 4 -29 9 -3 5 -36 24 -73 41 -62 29 -82 38 -152 68 -14 6 -35 14 -47 17 -13 4 -23 11 -23 16 0 5 -9 9 -20 9 -11 0 -28 4 -38 10 -9 5 -35 16 -57 25 -22 9 -53 22 -70 30 -16 7 -56 21 -87 30 -32 9 -60 21 -64 26 -3 5 -18 9 -33 9 -16 0 -34 7 -41 15 -7 8 -25 15 -41 15 -15 0 -31 5 -34 10 -3 6 -19 10 -34 10 -15 0 -36 7 -47 15 -10 8 -32 15 -49 15 -16 0 -39 7 -49 15 -11 8 -32 15 -47 15 -15 0 -31 5 -34 10 -3 6 -21 10 -38 10 -18 1 -43 7 -57 15 -14 8 -41 14 -60 15 -20 0 -41 5 -47 11 -10 10 -50 18 -178 37 -27 5 -60 13 -72 20 -12 7 -43 12 -68 12 -25 0 -55 5 -65 10 -11 6 -47 13 -82 16 -35 3 -72 10 -83 15 -11 4 -60 10 -110 12 -49 3 -110 9 -135 15 -25 6 -131 11 -237 12 -117 0 -194 4 -198 10 -3 6 -21 10 -40 10 -19 0 -37 -4 -40 -10z m388 -741 c11 -7 71 -16 132 -20 200 -15 264 -24 277 -36 6 -7 37 -13 68 -13 30 -1 66 -7 80 -15 14 -8 44 -14 67 -15 23 0 45 -4 48 -10 3 -5 26 -10 49 -10 27 0 48 -6 56 -15 7 -9 30 -15 54 -15 22 0 50 -7 60 -15 11 -8 34 -15 52 -15 18 0 36 -4 39 -10 3 -5 19 -10 35 -10 16 0 35 -7 44 -15 8 -8 27 -15 43 -15 15 0 37 -7 47 -15 11 -8 32 -15 47 -15 15 0 31 -4 34 -10 3 -5 19 -10 34 -10 16 0 34 -7 41 -15 7 -8 21 -15 30 -15 10 0 31 -6 47 -14 43 -21 75 -34 106 -40 15 -4 27 -11 27 -16 0 -6 11 -10 24 -10 14 0 27 -4 31 -9 3 -5 19 -12 35 -16 17 -4 30 -11 30 -16 0 -5 11 -9 24 -9 13 0 29 -7 36 -15 7 -8 19 -15 26 -15 8 0 22 -4 32 -9 9 -5 24 -12 32 -15 8 -3 22 -10 30 -15 8 -5 22 -12 30 -15 8 -3 22 -10 30 -15 8 -5 31 -17 50 -26 19 -9 49 -25 65 -35 17 -11 37 -23 45 -26 25 -10 74 -34 95 -46 26 -14 40 -22 93 -49 23 -13 42 -26 42 -31 0 -4 8 -8 19 -8 10 0 24 -7 31 -15 7 -8 19 -15 26 -15 8 0 14 -4 14 -9 0 -5 8 -11 18 -15 17 -5 52 -26 62 -36 9 -9 44 -30 68 -40 12 -5 22 -14 22 -20 0 -5 5 -10 12 -10 6 0 26 -11 44 -25 18 -14 37 -25 42 -25 6 0 12 -7 16 -15 3 -8 10 -15 16 -15 10 0 21 -8 55 -37 7 -7 18 -13 24 -13 6 0 11 -4 11 -10 0 -5 16 -17 36 -26 20 -9 38 -23 41 -31 3 -7 11 -13 19 -13 8 0 14 -4 14 -8 0 -5 24 -25 53 -45 28 -20 69 -52 90 -72 21 -19 40 -35 43 -35 3 0 11 -6 18 -12 7 -7 46 -42 87 -78 40 -36 96 -85 124 -110 81 -72 254 -248 335 -340 41 -47 80 -89 86 -95 6 -5 35 -41 65 -80 30 -38 61 -79 70 -90 71 -86 109 -136 109 -142 0 -5 10 -19 23 -33 13 -14 32 -41 43 -60 10 -19 21 -37 24 -40 13 -13 70 -102 70 -109 0 -5 6 -14 14 -20 8 -7 21 -26 30 -44 20 -40 35 -63 63 -104 13 -17 23 -38 23 -46 0 -8 7 -20 15 -27 8 -7 15 -21 15 -31 0 -11 5 -19 10 -19 6 0 10 -8 10 -19 0 -10 7 -24 15 -31 8 -7 15 -17 15 -23 0 -18 33 -87 42 -87 4 0 8 -9 8 -21 0 -11 7 -27 15 -35 8 -9 15 -24 15 -34 0 -10 5 -22 10 -25 6 -3 10 -17 10 -31 0 -14 7 -27 15 -30 8 -4 15 -18 15 -34 0 -15 7 -33 15 -40 8 -7 15 -25 15 -41 0 -15 5 -31 10 -34 6 -3 10 -17 10 -31 0 -14 7 -32 15 -40 8 -9 15 -31 15 -49 0 -18 7 -40 15 -49 8 -8 15 -30 15 -50 0 -19 5 -38 10 -41 6 -3 10 -25 10 -48 0 -23 7 -51 15 -61 9 -12 15 -42 15 -73 0 -29 4 -61 9 -71 26 -50 51 -505 31 -577 -6 -22 -15 -71 -20 -110 -13 -101 -27 -159 -39 -163 -6 -2 -11 -12 -11 -21 0 -21 -27 -78 -41 -86 -5 -4 -9 -13 -9 -22 0 -34 -119 -180 -292 -358 -181 -186 -236 -248 -249 -278 -6 -15 -16 -27 -21 -27 -5 0 -14 -13 -19 -30 -6 -16 -15 -30 -20 -30 -5 0 -9 -10 -9 -22 0 -13 -7 -32 -15 -42 -20 -26 -20 -145 0 -193 8 -19 15 -44 15 -55 0 -10 7 -21 15 -24 8 -4 15 -11 15 -18 0 -21 109 -115 157 -136 27 -11 56 -25 65 -30 27 -15 152 -12 185 5 15 8 47 22 71 32 23 9 42 20 42 25 0 4 5 8 10 8 14 0 41 28 90 95 54 73 250 275 267 275 7 0 13 -11 13 -24 0 -14 5 -28 10 -31 6 -3 10 -18 10 -33 0 -15 7 -40 15 -56 21 -40 21 -192 0 -200 -8 -3 -15 -17 -15 -32 0 -45 -112 -174 -150 -174 -6 0 -18 -7 -26 -15 -9 -8 -24 -15 -34 -15 -10 0 -22 -5 -25 -10 -3 -5 -25 -10 -49 -10 -23 0 -51 -7 -62 -15 -28 -21 -297 -21 -347 0 -20 8 -56 15 -81 15 -25 0 -48 4 -51 10 -3 5 -21 10 -38 10 -18 0 -45 7 -61 15 -15 8 -41 15 -57 15 -17 0 -40 7 -54 16 -13 8 -38 14 -55 12 -25 -2 -36 -11 -53 -43 -12 -22 -25 -41 -29 -43 -5 -2 -8 -12 -8 -22 0 -11 -6 -23 -12 -27 -12 -7 -28 -33 -65 -106 -8 -15 -19 -27 -24 -27 -5 0 -9 -9 -9 -20 0 -21 -187 -220 -208 -220 -6 0 -12 -4 -12 -9 0 -5 -8 -11 -17 -15 -19 -6 -55 -27 -63 -37 -7 -9 -87 -55 -137 -79 -23 -11 -45 -24 -48 -30 -3 -5 -14 -10 -24 -10 -10 0 -24 -7 -31 -15 -7 -8 -21 -15 -31 -15 -11 0 -19 -4 -19 -10 0 -5 -11 -10 -24 -10 -13 0 -29 -7 -36 -15 -7 -8 -21 -15 -32 -15 -11 0 -26 -7 -34 -15 -9 -8 -26 -15 -40 -15 -13 0 -24 -4 -24 -10 0 -5 -13 -10 -28 -10 -16 0 -37 -7 -48 -15 -10 -8 -31 -15 -45 -15 -15 0 -32 -7 -39 -15 -7 -8 -27 -15 -46 -15 -18 0 -36 -4 -39 -10 -3 -5 -25 -10 -48 -10 -23 0 -51 -7 -61 -15 -11 -8 -38 -15 -60 -15 -23 0 -50 -7 -60 -15 -13 -10 -43 -15 -82 -15 -35 0 -65 -4 -68 -9 -3 -4 -53 -10 -111 -13 -61 -3 -111 -10 -117 -16 -17 -17 -655 -17 -695 -1 -15 7 -75 15 -133 20 -175 14 -272 27 -283 38 -6 6 -34 11 -63 11 -28 0 -65 7 -80 15 -16 8 -48 15 -71 15 -23 0 -45 4 -48 10 -3 5 -26 10 -49 10 -27 0 -48 6 -56 15 -7 9 -30 15 -54 15 -22 0 -50 7 -60 15 -11 8 -34 15 -52 15 -18 0 -36 5 -39 10 -3 6 -19 10 -35 10 -16 0 -35 7 -44 15 -8 8 -27 15 -43 15 -15 0 -37 7 -47 15 -11 8 -32 15 -47 15 -15 0 -31 5 -34 10 -3 6 -20 10 -36 10 -17 0 -32 6 -35 15 -4 8 -17 15 -29 15 -13 0 -36 6 -52 14 -43 21 -75 34 -105 40 -16 4 -28 11 -28 16 0 6 -11 10 -24 10 -25 0 -88 29 -94 43 -2 4 -14 7 -27 7 -12 0 -28 7 -35 15 -7 8 -19 15 -26 15 -8 0 -22 4 -32 9 -9 5 -24 12 -32 15 -8 3 -22 10 -30 15 -8 5 -22 12 -30 15 -8 3 -22 10 -30 15 -8 5 -31 17 -50 26 -19 9 -48 25 -65 35 -16 11 -37 23 -45 26 -20 8 -71 33 -90 43 -8 4 -24 13 -35 19 -11 6 -39 21 -62 33 -24 13 -43 26 -43 31 0 4 -9 8 -20 8 -11 0 -20 4 -20 9 0 5 -10 13 -22 17 -13 4 -25 9 -28 13 -8 10 -44 31 -62 37 -10 4 -18 10 -18 15 0 5 -5 9 -11 9 -6 0 -28 14 -49 30 -21 17 -41 30 -45 30 -5 0 -23 11 -41 25 -18 14 -37 25 -42 25 -6 0 -12 7 -16 15 -3 8 -10 15 -16 15 -6 0 -23 11 -38 25 -15 14 -32 25 -38 25 -7 0 -14 7 -18 15 -3 8 -12 15 -20 15 -8 0 -16 4 -18 8 -1 5 -30 29 -64 53 -62 46 -145 112 -174 139 -31 28 -70 60 -75 60 -4 0 -187 172 -280 265 -34 33 -108 111 -165 174 -58 63 -114 124 -126 135 -11 12 -23 29 -27 39 -3 9 -11 17 -17 17 -5 0 -10 4 -10 9 0 5 -13 24 -30 43 -47 53 -130 166 -130 178 0 5 -4 10 -9 10 -5 0 -24 24 -42 53 -18 28 -36 54 -39 57 -3 3 -23 32 -44 65 -21 33 -47 72 -57 87 -11 15 -19 34 -19 43 0 8 -4 15 -9 15 -5 0 -16 12 -24 27 -35 69 -53 98 -59 101 -5 2 -8 12 -8 22 0 9 -7 23 -15 30 -8 7 -15 21 -15 32 0 10 -7 21 -15 24 -8 4 -15 17 -15 30 0 13 -4 24 -10 24 -5 0 -10 9 -10 20 0 11 -7 23 -15 26 -8 4 -15 16 -15 29 0 12 -6 28 -14 35 -8 6 -12 18 -9 26 3 7 -2 17 -11 20 -9 3 -16 15 -16 26 0 11 -7 26 -15 34 -8 9 -15 29 -15 45 0 16 -4 29 -10 29 -5 0 -10 10 -10 23 0 12 -7 31 -15 41 -8 11 -15 29 -15 40 0 12 -7 30 -15 40 -8 11 -15 30 -15 42 0 13 -4 26 -10 29 -5 3 -10 20 -10 36 0 17 -7 37 -15 45 -8 9 -15 32 -15 52 0 20 -7 46 -15 56 -8 11 -15 37 -15 57 0 21 -4 41 -10 44 -5 3 -10 27 -10 53 -1 26 -7 58 -15 72 -8 14 -14 50 -15 80 0 30 -5 71 -10 90 -14 50 -15 589 -1 603 6 6 11 23 11 38 0 15 7 40 15 55 8 16 15 37 15 47 0 9 5 17 10 17 6 0 10 7 10 16 0 8 11 30 25 48 14 18 25 36 25 40 0 19 128 174 240 289 119 124 145 152 249 267 23 25 41 50 41 57 0 7 6 16 13 20 8 4 27 35 43 68 25 52 29 71 29 150 0 79 -3 97 -29 150 -33 67 -121 161 -160 171 -15 3 -26 10 -26 15 0 5 -11 9 -25 9 -14 0 -42 7 -62 15 -45 19 -104 19 -129 0 -10 -8 -30 -15 -44 -15 -14 -1 -38 -10 -55 -21 -16 -10 -36 -22 -43 -25 -25 -12 -92 -77 -92 -89 0 -12 -78 -99 -217 -245 l-61 -65 -7 30 c-3 17 -10 38 -16 47 -5 10 -9 27 -9 39 0 11 -7 36 -16 54 -34 73 -1 238 64 319 39 48 144 116 180 116 12 0 24 5 27 10 3 6 22 10 41 10 19 0 51 7 71 15 25 10 71 15 153 15 82 0 128 -5 153 -15 20 -8 59 -15 86 -15 27 0 53 -4 56 -10 3 -5 23 -10 44 -10 20 0 46 -7 57 -15 10 -8 37 -15 59 -15 22 0 49 -7 59 -15 35 -26 96 -16 96 15 0 11 4 21 9 24 5 3 18 24 29 45 37 70 47 86 60 94 6 4 12 17 12 27 0 11 4 20 8 20 5 0 17 17 28 37 18 34 174 203 189 203 3 0 18 11 33 25 15 14 32 25 39 25 7 0 13 4 13 9 0 5 19 19 43 31 23 12 44 25 47 29 8 10 39 27 117 66 40 19 75 40 78 45 3 6 15 10 26 10 10 0 19 5 19 10 0 6 8 10 18 10 10 0 27 7 38 15 10 8 27 15 37 15 10 0 25 7 33 15 9 8 26 15 40 15 13 0 24 5 24 10 0 6 13 10 28 10 16 0 37 7 48 15 10 8 31 15 45 15 15 0 32 6 38 14 11 13 34 19 126 33 22 3 49 12 60 19 11 8 38 14 60 14 23 0 46 5 52 11 12 12 80 22 266 39 59 5 115 14 125 19 25 15 677 14 705 0z"/>
 <path d="M1918 6061 c-15 -9 -39 -30 -53 -45 -22 -24 -25 -36 -25 -102 0 -61 4 -80 22 -104 12 -17 27 -30 34 -30 6 0 17 -7 24 -15 9 -10 32 -15 75 -15 60 0 63 1 113 48 l52 47 0 70 c0 61 -3 73 -25 94 -14 13 -25 27 -25 32 0 5 -9 9 -19 9 -10 0 -21 7 -25 15 -8 22 -112 19 -148 -4z"/>
 <path d="M1676 5523 c-16 -3 -35 -10 -41 -16 -7 -7 -25 -21 -39 -31 -15 -11 -26 -29 -26 -42 0 -12 -4 -26 -10 -29 -25 -15 -1 -104 42 -155 67 -79 211 -61 268 33 39 63 22 156 -37 203 -48 39 -85 47 -157 37z"/>
 <path d="M1527 4976 c-72 -32 -123 -112 -114 -180 3 -22 11 -42 16 -44 6 -2 11 -10 11 -17 0 -16 53 -55 105 -78 39 -17 42 -17 86 2 56 25 109 74 109 101 0 11 5 20 10 20 6 0 10 15 10 34 0 19 -4 38 -10 41 -5 3 -10 14 -10 24 0 22 -52 75 -92 96 -37 18 -82 18 -121 1z"/>
 <path d="M1941 4835 c-18 -6 -48 -24 -67 -39 -34 -27 -34 -27 -34 -111 0 -94 4 -102 79 -150 70 -43 137 -29 209 43 30 31 32 38 32 103 0 67 -1 70 -38 107 -34 34 -99 64 -133 61 -8 -1 -29 -7 -48 -14z"/>
 <path d="M1643 4421 c-45 -23 -93 -100 -93 -150 0 -22 5 -43 10 -46 6 -3 10 -14 10 -23 0 -9 19 -33 43 -54 39 -35 46 -38 106 -38 56 0 68 4 102 31 50 40 69 76 69 134 0 120 -138 202 -247 146z"/>
 <path d="M2215 4290 c-3 -5 -13 -10 -22 -10 -18 0 -63 -40 -63 -56 0 -6 -7 -17 -15 -24 -10 -8 -15 -31 -15 -70 0 -56 2 -60 46 -104 25 -25 54 -46 65 -46 11 0 28 -6 39 -12 16 -10 24 -10 40 0 11 6 28 12 37 12 27 0 90 61 97 95 16 67 18 95 7 95 -6 0 -11 9 -11 20 0 25 -44 76 -83 95 -34 17 -113 20 -122 5z"/>
 <path d="M1830 4020 c-8 -5 -25 -10 -37 -10 -13 0 -23 -4 -23 -10 0 -5 -4 -10 -10 -10 -19 0 -52 -42 -58 -74 -4 -17 -6 -52 -6 -78 1 -38 7 -53 35 -82 18 -20 39 -36 45 -36 6 0 17 -7 24 -15 23 -27 95 -19 151 17 28 19 49 40 49 51 0 10 7 20 15 23 11 5 15 22 15 63 0 54 -3 60 -42 103 -24 25 -56 48 -72 52 -16 4 -38 9 -50 12 -11 2 -28 0 -36 -6z"/>
 <path d="M2246 3201 c-4 -6 -18 -11 -31 -11 -15 0 -42 -17 -70 -44 -44 -43 -45 -46 -45 -105 0 -34 4 -61 10 -61 5 0 12 -11 16 -25 9 -37 93 -85 148 -85 27 0 48 6 56 15 7 8 18 15 24 15 18 0 66 59 66 81 0 10 5 19 10 19 23 0 -4 127 -32 148 -9 7 -23 18 -30 26 -7 7 -26 16 -42 20 -16 4 -39 9 -51 12 -12 3 -26 1 -29 -5z"/>
 <path d="M3181 2376 c-50 -16 -107 -75 -120 -124 -12 -42 -6 -92 10 -92 5 0 9 -6 9 -13 0 -15 41 -55 82 -80 90 -56 238 36 238 147 0 19 -4 46 -10 60 -14 37 -74 93 -107 99 -15 3 -37 7 -48 10 -11 2 -35 0 -54 -7z"/>
 </g>

</svg>